<svg width="29" height="33" viewBox="0 0 29 33" fill="none" xmlns="http://www.w3.org/2000/svg">
<g clip-path="url(#clip0_11_128)">
<path d="M29 5.15625V8.25C29 11.0988 22.5074 13.4062 14.5 13.4062C6.49263 13.4062 0 11.0988 0 8.25V5.15625C0 2.30742 6.49263 0 14.5 0C22.5074 0 29 2.30742 29 5.15625ZM25.4527 13.8381C26.7991 13.3611 28.0355 12.7488 29 11.9947V18.5625C29 21.4113 22.5074 23.7188 14.5 23.7188C6.49263 23.7188 0 21.4113 0 18.5625V11.9947C0.964509 12.7553 2.20089 13.3611 3.54732 13.8381C6.45379 14.8693 10.3248 15.4688 14.5 15.4688C18.6752 15.4688 22.5462 14.8693 25.4527 13.8381ZM0 22.3072C0.964509 23.0678 2.20089 23.6736 3.54732 24.1506C6.45379 25.1818 10.3248 25.7812 14.5 25.7812C18.6752 25.7812 22.5462 25.1818 25.4527 24.1506C26.7991 23.6736 28.0355 23.0613 29 22.3072V27.8438C29 30.6926 22.5074 33 14.5 33C6.49263 33 0 30.6926 0 27.8438V22.3072Z" fill="currentColor"/>
</g>
<defs>
<clipPath id="clip0_11_128">
<rect width="29" height="33" fill="white"/>
</clipPath>
</defs>
</svg>
