<svg width="27" height="23" viewBox="0 0 27 23" fill="none" xmlns="http://www.w3.org/2000/svg">
<path d="M5.0625 3.28571C5.0625 1.47344 6.57598 0 8.4375 0H23.625C25.4865 0 27 1.47344 27 3.28571V19.7143C27 21.5266 25.4865 23 23.625 23H4.21875C1.88789 23 0 21.1621 0 18.8929V4.92857C0 4.01987 0.754102 3.28571 1.6875 3.28571C2.6209 3.28571 3.375 4.01987 3.375 4.92857V18.8929C3.375 19.3446 3.75469 19.7143 4.21875 19.7143C4.68281 19.7143 5.0625 19.3446 5.0625 18.8929V3.28571ZM8.4375 4.51786V8.625C8.4375 9.30781 9.00176 9.85714 9.70312 9.85714H15.6094C16.3107 9.85714 16.875 9.30781 16.875 8.625V4.51786C16.875 3.83504 16.3107 3.28571 15.6094 3.28571H9.70312C9.00176 3.28571 8.4375 3.83504 8.4375 4.51786ZM19.4062 4.10714C19.4062 4.55893 19.7859 4.92857 20.25 4.92857H22.7812C23.2453 4.92857 23.625 4.55893 23.625 4.10714C23.625 3.65536 23.2453 3.28571 22.7812 3.28571H20.25C19.7859 3.28571 19.4062 3.65536 19.4062 4.10714ZM19.4062 9.03571C19.4062 9.4875 19.7859 9.85714 20.25 9.85714H22.7812C23.2453 9.85714 23.625 9.4875 23.625 9.03571C23.625 8.58393 23.2453 8.21429 22.7812 8.21429H20.25C19.7859 8.21429 19.4062 8.58393 19.4062 9.03571ZM8.4375 13.9643C8.4375 14.4161 8.81719 14.7857 9.28125 14.7857H22.7812C23.2453 14.7857 23.625 14.4161 23.625 13.9643C23.625 13.5125 23.2453 13.1429 22.7812 13.1429H9.28125C8.81719 13.1429 8.4375 13.5125 8.4375 13.9643ZM8.4375 18.8929C8.4375 19.3446 8.81719 19.7143 9.28125 19.7143H22.7812C23.2453 19.7143 23.625 19.3446 23.625 18.8929C23.625 18.4411 23.2453 18.0714 22.7812 18.0714H9.28125C8.81719 18.0714 8.4375 18.4411 8.4375 18.8929Z" fill="currentColor"/>
</svg>
