<svg width="147" height="196" viewBox="0 0 147 196" fill="none" xmlns="http://www.w3.org/2000/svg">
<path d="M24.5 0C10.9867 0 0 10.9867 0 24.5V171.5C0 185.013 10.9867 196 24.5 196H122.5C136.013 196 147 185.013 147 171.5V61.25H98C91.2242 61.25 85.75 55.7758 85.75 49V0H24.5ZM98 0V49H147L98 0ZM30.625 24.5H55.125C58.4938 24.5 61.25 27.2562 61.25 30.625C61.25 33.9938 58.4938 36.75 55.125 36.75H30.625C27.2562 36.75 24.5 33.9938 24.5 30.625C24.5 27.2562 27.2562 24.5 30.625 24.5ZM30.625 49H55.125C58.4938 49 61.25 51.7562 61.25 55.125C61.25 58.4938 58.4938 61.25 55.125 61.25H30.625C27.2562 61.25 24.5 58.4938 24.5 55.125C24.5 51.7562 27.2562 49 30.625 49ZM36.75 85.75H110.25C117.026 85.75 122.5 91.2242 122.5 98V122.5C122.5 129.276 117.026 134.75 110.25 134.75H36.75C29.9742 134.75 24.5 129.276 24.5 122.5V98C24.5 91.2242 29.9742 85.75 36.75 85.75ZM36.75 98V122.5H110.25V98H36.75ZM91.875 159.25H116.375C119.744 159.25 122.5 162.006 122.5 165.375C122.5 168.744 119.744 171.5 116.375 171.5H91.875C88.5062 171.5 85.75 168.744 85.75 165.375C85.75 162.006 88.5062 159.25 91.875 159.25Z" fill="white"/>
</svg>
