<svg width="28" height="25" viewBox="0 0 28 25" fill="none" xmlns="http://www.w3.org/2000/svg">
<g clip-path="url(#clip0_1_2214)">
<path d="M27.9903 12.4756C27.9903 13.3545 27.2611 14.043 26.4347 14.043H24.8792L24.9132 21.8652C24.9132 21.9971 24.9035 22.1289 24.8889 22.2607V23.0518C24.8889 24.1309 24.0188 25.0049 22.9445 25.0049H22.1667C22.1132 25.0049 22.0597 25.0049 22.0063 25C21.9382 25.0049 21.8702 25.0049 21.8021 25.0049L20.2222 25H19.0556C17.9813 25 17.1111 24.126 17.1111 23.0469V21.875V18.75C17.1111 17.8857 16.416 17.1875 15.5556 17.1875H12.4445C11.584 17.1875 10.8889 17.8857 10.8889 18.75V21.875V23.0469C10.8889 24.126 10.0188 25 8.94447 25H7.7778H6.22711C6.15419 25 6.08127 24.9951 6.00836 24.9902C5.95002 24.9951 5.89169 25 5.83336 25H5.05558C3.98127 25 3.11113 24.126 3.11113 23.0469V17.5781C3.11113 17.5342 3.11113 17.4854 3.11599 17.4414V14.0381H1.56044C0.685438 14.0381 0.00488281 13.3545 0.00488281 12.4707C0.00488281 12.0312 0.150716 11.6406 0.490994 11.2988L12.95 0.390625C13.2903 0.0488281 13.6792 0 14.0195 0C14.3597 0 14.7486 0.0976562 15.0403 0.341797L27.4556 11.3037C27.8445 11.6455 28.0389 12.0361 27.9903 12.4756Z" fill="white"/>
</g>
<defs>
<clipPath id="clip0_1_2214">
<rect width="28" height="25" fill="white"/>
</clipPath>
</defs>
</svg>
