<svg width="27" height="24" viewBox="0 0 27 24" fill="none" xmlns="http://www.w3.org/2000/svg">
<path d="M19.9283 3.89707L26.4041 10.3729C26.7838 10.7525 27 11.2746 27 11.8125C27 12.3504 26.7838 12.8725 26.4041 13.2521L19.9283 19.7279C19.5908 20.0654 19.1373 20.25 18.6627 20.25C17.6766 20.25 16.875 19.4484 16.875 18.4623V15.1875H10.125C9.1916 15.1875 8.4375 14.4334 8.4375 13.5V10.125C8.4375 9.1916 9.1916 8.4375 10.125 8.4375H16.875V5.16269C16.875 4.17656 17.6766 3.375 18.6627 3.375C19.1373 3.375 19.5908 3.56484 19.9283 3.89707ZM8.4375 3.375H5.0625C4.1291 3.375 3.375 4.1291 3.375 5.0625V18.5625C3.375 19.4959 4.1291 20.25 5.0625 20.25H8.4375C9.3709 20.25 10.125 21.0041 10.125 21.9375C10.125 22.8709 9.3709 23.625 8.4375 23.625H5.0625C2.26758 23.625 0 21.3574 0 18.5625V5.0625C0 2.26758 2.26758 0 5.0625 0H8.4375C9.3709 0 10.125 0.754102 10.125 1.6875C10.125 2.6209 9.3709 3.375 8.4375 3.375Z" fill="white"/>
</svg>
