<svg width="35" height="35" viewBox="0 0 35 35" fill="none" xmlns="http://www.w3.org/2000/svg">
<path d="M11.4844 5.46875C10.5752 5.46875 9.84375 6.2002 9.84375 7.10938V27.8906C9.84375 28.4648 9.74805 29.0186 9.56348 29.5312H30.0781C30.9873 29.5312 31.7188 28.7998 31.7188 27.8906V7.10938C31.7188 6.2002 30.9873 5.46875 30.0781 5.46875H11.4844ZM4.92188 32.8125C2.20117 32.8125 0 30.6113 0 27.8906V7.65625C0 6.74707 0.731445 6.01562 1.64062 6.01562C2.5498 6.01562 3.28125 6.74707 3.28125 7.65625V27.8906C3.28125 28.7998 4.0127 29.5312 4.92188 29.5312C5.83105 29.5312 6.5625 28.7998 6.5625 27.8906V7.10938C6.5625 4.38867 8.76367 2.1875 11.4844 2.1875H30.0781C32.7988 2.1875 35 4.38867 35 7.10938V27.8906C35 30.6113 32.7988 32.8125 30.0781 32.8125H4.92188ZM12.0312 9.29688C12.0312 8.3877 12.7627 7.65625 13.6719 7.65625H20.2344C21.1436 7.65625 21.875 8.3877 21.875 9.29688V14.7656C21.875 15.6748 21.1436 16.4062 20.2344 16.4062H13.6719C12.7627 16.4062 12.0312 15.6748 12.0312 14.7656V9.29688ZM25.7031 7.65625H27.8906C28.7998 7.65625 29.5312 8.3877 29.5312 9.29688C29.5312 10.2061 28.7998 10.9375 27.8906 10.9375H25.7031C24.7939 10.9375 24.0625 10.2061 24.0625 9.29688C24.0625 8.3877 24.7939 7.65625 25.7031 7.65625ZM25.7031 13.125H27.8906C28.7998 13.125 29.5312 13.8564 29.5312 14.7656C29.5312 15.6748 28.7998 16.4062 27.8906 16.4062H25.7031C24.7939 16.4062 24.0625 15.6748 24.0625 14.7656C24.0625 13.8564 24.7939 13.125 25.7031 13.125ZM13.6719 18.5938H27.8906C28.7998 18.5938 29.5312 19.3252 29.5312 20.2344C29.5312 21.1436 28.7998 21.875 27.8906 21.875H13.6719C12.7627 21.875 12.0312 21.1436 12.0312 20.2344C12.0312 19.3252 12.7627 18.5938 13.6719 18.5938ZM13.6719 24.0625H27.8906C28.7998 24.0625 29.5312 24.7939 29.5312 25.7031C29.5312 26.6123 28.7998 27.3438 27.8906 27.3438H13.6719C12.7627 27.3438 12.0312 26.6123 12.0312 25.7031C12.0312 24.7939 12.7627 24.0625 13.6719 24.0625Z" fill="white"/>
</svg>
