<svg width="29" height="29" viewBox="0 0 29 29" fill="none" xmlns="http://www.w3.org/2000/svg">
<g clip-path="url(#clip0_1_2349)">
<path d="M10.875 1.8125C10.875 0.809961 11.685 0 12.6875 0C21.699 0 29 7.30098 29 16.3125C29 17.315 28.19 18.125 27.1875 18.125C26.185 18.125 25.375 17.315 25.375 16.3125C25.375 9.30606 19.6939 3.625 12.6875 3.625C11.685 3.625 10.875 2.81504 10.875 1.8125ZM3.43242 12.4949L9.32871 18.3912L10.9373 16.7826C10.8977 16.6354 10.875 16.4768 10.875 16.3125C10.875 15.31 11.685 14.5 12.6875 14.5C13.69 14.5 14.5 15.31 14.5 16.3125C14.5 17.315 13.69 18.125 12.6875 18.125C12.5232 18.125 12.3703 18.1023 12.2174 18.0627L10.6088 19.6713L16.5051 25.5676C17.3264 26.3889 17.1734 27.7652 16.0916 28.19C14.7549 28.7111 13.3049 29 11.7812 29C5.27324 29 0 23.7268 0 17.2188C0 15.6951 0.288867 14.2451 0.815625 12.9084C1.24043 11.8322 2.6168 11.6736 3.43809 12.4949H3.43242ZM12.6875 5.4375C18.6914 5.4375 23.5625 10.3086 23.5625 16.3125C23.5625 17.315 22.7525 18.125 21.75 18.125C20.7475 18.125 19.9375 17.315 19.9375 16.3125C19.9375 12.308 16.692 9.0625 12.6875 9.0625C11.685 9.0625 10.875 8.25254 10.875 7.25C10.875 6.24746 11.685 5.4375 12.6875 5.4375Z" fill="white"/>
</g>
<defs>
<clipPath id="clip0_1_2349">
<rect width="29" height="29" fill="white"/>
</clipPath>
</defs>
</svg>
