<svg width="93" height="106" viewBox="0 0 93 106" fill="none" xmlns="http://www.w3.org/2000/svg">
<g clip-path="url(#clip0_42_128)">
<path d="M46.5 53C53.5472 53 60.3057 50.208 65.2888 45.2383C70.2719 40.2686 73.0714 33.5282 73.0714 26.5C73.0714 19.4718 70.2719 12.7314 65.2888 7.76167C60.3057 2.79196 53.5472 0 46.5 0C39.4528 0 32.6943 2.79196 27.7112 7.76167C22.7281 12.7314 19.9286 19.4718 19.9286 26.5C19.9286 33.5282 22.7281 40.2686 27.7112 45.2383C32.6943 50.208 39.4528 53 46.5 53ZM37.0132 62.9375C16.5656 62.9375 0 79.4586 0 99.8512C0 103.246 2.76094 106 6.1654 106H86.8346C90.2391 106 93 103.246 93 99.8512C93 79.4586 76.4344 62.9375 55.9868 62.9375H37.0132Z" fill="white"/>
</g>
<defs>
<clipPath id="clip0_42_128">
<rect width="93" height="106" fill="white"/>
</clipPath>
</defs>
</svg>
