<svg width="138" height="158" viewBox="0 0 138 158" fill="none" xmlns="http://www.w3.org/2000/svg">
<g clip-path="url(#clip0_53_128)">
<path d="M29.5714 39.5C29.5714 49.9761 33.7255 60.023 41.1198 67.4307C48.5141 74.8384 58.5429 79 69 79C79.4571 79 89.4859 74.8384 96.8802 67.4307C104.274 60.023 108.429 49.9761 108.429 39.5C108.429 29.0239 104.274 18.977 96.8802 11.5693C89.4859 4.1616 79.4571 0 69 0C58.5429 0 48.5141 4.1616 41.1198 11.5693C33.7255 18.977 29.5714 29.0239 29.5714 39.5ZM58.6808 101.28L64.4103 110.847L54.1527 149.082L43.0634 103.749C42.4473 101.25 40.0446 99.6141 37.5496 100.262C15.9871 105.662 0 125.227 0 148.526C0 153.772 4.25089 158 9.4567 158H50.025C50.025 158 50.025 158 50.0558 158H51.75H86.25H87.9442C87.9442 158 87.9442 158 87.975 158H128.543C133.78 158 138 153.741 138 148.526C138 125.227 122.013 105.662 100.45 100.262C97.9554 99.6449 95.5527 101.28 94.9366 103.749L83.8473 149.082L73.5897 110.847L79.3192 101.28C81.2906 97.9785 78.9187 93.8125 75.0991 93.8125H69H62.9317C59.1121 93.8125 56.7402 98.0094 58.7116 101.28H58.6808Z" fill="white"/>
</g>
<defs>
<clipPath id="clip0_53_128">
<rect width="138" height="158" fill="white"/>
</clipPath>
</defs>
</svg>
